# xmcd
#
# Track frame offsets: 
#        170
#        12762
#        24837
#        38310
#        51007
#        65645
#        77620
#        92242
#        106032
#        119185
#        132367
#        145195
#
# Disc length: 2126 seconds
#
# Revision: 0
# Processed by: cddbd v1.5.2PL0 Copyright (c) Steve Scherf et al.
# Submitted via: ExactAudioCopy v1.0b3
#
DISCID=93084c0c
DTITLE=Stevie Wonder - Greatest Hits, Volume 2
DYEAR=1971
DGENRE=R&B
TTITLE0=Shoo-Be-Doo-Be-Doo-Da-Day
TTITLE1=Signed, Sealed, Delivered I'm Yours
TTITLE2=If You Really Love Me
TTITLE3=For Once In My Life
TTITLE4=We Can Work It Out
TTITLE5=You Met Your Match
TTITLE6=Never Had A Dream Come True
TTITLE7=Yester-Me Yester-You Yesterday
TTITLE8=My Cherie Amour
TTITLE9=Never Dreamed You'd Leave In Summer
TTITLE10=Travelin Man
TTITLE11=Heaven Help Us All
EXTD=
EXTT0=
EXTT1=
EXTT2=
EXTT3=
EXTT4=
EXTT5=
EXTT6=
EXTT7=
EXTT8=
EXTT9=
EXTT10=
EXTT11=
PLAYORDER=
